<svg id="Layer_1" data-name="Layer 1" xmlns="http://www.w3.org/2000/svg" viewBox="0 0 579.86 479.2"><defs><style>.cls-1{fill:#121617;}</style></defs><polygon class="cls-1" points="229.38 348.16 223.02 340.83 207.92 340.83 207.92 375.98 223.47 375.98 223.47 358.39 229.38 365.18 235.26 358.39 235.26 375.98 250.83 375.98 250.83 340.83 235.74 340.83 229.38 348.16"/><path class="cls-1" d="M266.41,340.83,254.21,376h15.57l2-5.94h11.42l2,5.94h15.54l-12.2-35.15Zm8.23,20.92,2.88-8.73,2.88,8.73Z"/><rect class="cls-1" x="304.41" y="340.84" width="15.54" height="35.14"/><path class="cls-1" d="M335.7,340.83,323.5,376h15.56l2-5.94h11.42l2,5.94h15.54l-12.2-35.15Zm8.22,20.92,2.87-8.73,2.88,8.73Z"/><path class="cls-1" d="M300.09,320.77q5.3-4,5.29-7c0-1.18-.67-1.76-2-1.76q-2.49,0-7.75,4.51t-5.24,6.92c0,.84.5,1.25,1.49,1.25,2.09,0,4.82-1.29,8.23-3.88"/><polygon class="cls-1" points="207.97 286.49 207.97 299.32 231.73 299.32 208.22 337.6 262.03 337.6 262.03 324.76 239.7 324.76 263.21 286.49 207.97 286.49"/><path class="cls-1" d="M326.61,293.91a25.93,25.93,0,0,0,0,36.24,25.49,25.49,0,0,0,36,0,25.93,25.93,0,0,0,0-36.24,25.57,25.57,0,0,0-36,0"/><path class="cls-1" d="M290.88,337.6a23.9,23.9,0,0,0,17.65-7.3,24.19,24.19,0,0,0,6-9.6,26.31,26.31,0,0,1-4.36,2.89c-3.29,1.88-5.44,2.82-6.42,2.82-1.34,0-2-.72-2-2.15a5.62,5.62,0,0,1,.27-1.75c-3.33,2.6-6.13,3.9-8.44,3.9s-3.57-1.16-3.57-3.49a5.83,5.83,0,0,1,.32-1.93,31.53,31.53,0,0,1-4.27,2.6q-5.33,2.82-7,2.82c-1.28,0-1.93-.51-1.93-1.54a5,5,0,0,1,.54-2q-4.37,3.17-7.58,3.49a25.24,25.24,0,0,0,3.22,3.94,23.87,23.87,0,0,0,17.62,7.3"/><path class="cls-1" d="M307.65,293.7a24.57,24.57,0,0,0-2.1-1.88q-7,8-14,16-12.73,14.66-13,15.62l.61.37q2.28.09,6.72-2.95c2.55-1.71,4.08-2.71,4.64-3a14.58,14.58,0,0,1,3.89-3.67c3.13-2.16,6.07-3.23,8.78-3.23,2.26,0,3.38.85,3.38,2.57a5.31,5.31,0,0,1-.22,1.37c.54-.56,1.72-1.87,3.5-3.94h3.84l-5.88,6.41c-3.16,3.54-4.77,5.57-4.81,6.09l.54.43q1.69.06,6-3c2.87-2.07,4.34-3.1,4.44-3.13l.08.11a26.11,26.11,0,0,0,.83-6.6,23.93,23.93,0,0,0-7.16-17.55"/><path class="cls-1" d="M270.63,314.21c3.12-2.16,6-3.25,8.65-3.25,2,0,3.11.69,3.37,2.09l19.63-22.62h1.4a24,24,0,0,0-13.53-3.94,24.53,24.53,0,0,0-24.63,24.76,26.71,26.71,0,0,0,.94,7.1,14,14,0,0,1,4.17-4.14"/><path class="cls-1" d="M276.53,320.77q5.33-4,5.32-7c0-1.17-.69-1.75-2.06-1.75-1.66,0-4.25,1.48-7.75,4.49-2.62,2.24-4.27,4.11-4.93,5.58a26.09,26.09,0,0,0,1.35,2.56c2.09-.06,4.77-1.34,8.07-3.86"/><path class="cls-1" d="M289.93,108.92a80.86,80.86,0,0,1,24.53,3.81c1.05-1.41,2.41-3.17,3.75-4.77a86.77,86.77,0,0,0-28.28-4.74c-12.93,0-24.14,1.79-35.16,6.86,1.45,1.55,1.73,4.13,2.91,5.54a80.75,80.75,0,0,1,32.25-6.7"/><path class="cls-1" d="M265.13,204.76c-1,.24-1.23-.35-2-.34.06.84-.52,1-.66,1.68a2.48,2.48,0,0,0,2.69-1.34"/><path class="cls-1" d="M265.13,200.05c-.08.53-1.29,1.57-.34,2,.6-.65,1.42-1.05,2-1.69-.94.27-.86-.47-1.67-.34"/><path class="cls-1" d="M264.45,200.05c-1.61-.91-2.8.24-3,1.68.44.47,1.6.21,2,.68.28-.84.93-1.33,1-2.36"/><path class="cls-1" d="M268.49,205.09a3,3,0,0,0-4,1.35c1.94.13,3.66.07,4-1.35"/><path class="cls-1" d="M261.09,211.81c1.73-.06,2.12-1.46,3-2.34-1.27.26-1.62-.41-2.7-.34-.26.78-1.07,1.91-.33,2.68"/><path class="cls-1" d="M268.82,209.13a6.54,6.54,0,0,0-6.38,3c.08,1.27,1.27,1.42,1.34,2.7a17.79,17.79,0,0,0,5-5.72"/><path class="cls-1" d="M264.12,193.67c-1.8-.22-2.94.2-3.36,1.34,1.25,0,1-1.45,2.68-1-1.21,1.95.29,1.14.68-.33"/><path class="cls-1" d="M263.44,163.76c-3.65-.06-6.48-8.35-9.74-3.37,2.11,1.91,7.19,4.08,9.74,3.37"/><path class="cls-1" d="M250.33,164.08c-.82,5.2,4.13,4.62,4.37,8.75,2.44,0,4.49-.46,4.71-2.69-1.23-.22-1.29.73-2.35.67-.67-3.81-4.89-4.08-6.73-6.73"/><path class="cls-1" d="M262.1,165.43c-1-.62-3.37-1.26-3.36.67.87.63,3.27.54,3.36-.67"/><path class="cls-1" d="M258.07,191.32c1.73-.3,2.35-1.69,2.69-3.37-2.14-.25-3,2.23-2.69,3.37"/><path class="cls-1" d="M269.15,225.6c-1.38,1.19-3.74,3.19-3.69,4.71,1-1.57,4.23-2.72,3.69-4.71"/><path class="cls-1" d="M257.4,183.58c-2.31-.43-4.77,4.35-1.69,5,.54-2.42,1.38-2.68,2.36-4.37.3-.51.47-1.76.67-2,2-2.69,7.72-4.7,5.38-7.74-.69,4.58-6.12,4.42-6.72,9.08"/><path class="cls-1" d="M265.13,219.55c-1.36-.12-3.57.67-2.69,1.68.8-.65,2.65-.26,2.69-1.68"/><path class="cls-1" d="M269.49,213.83a5.5,5.5,0,0,0-3,2.35c1.81,0,3.12-.47,3-2.35"/><path class="cls-1" d="M259.75,208.79c-1.28.26-1.61-.4-2.69-.34.07.64-.38.75-.34,1.34a2,2,0,0,0,3-1"/><path class="cls-1" d="M266.8,220.89a8.24,8.24,0,0,0-6,3c2.48-.53,5.29-.76,6-3"/><path class="cls-1" d="M257.4,199.71c.63-.15,2,.46,1.68-.66H257.4Z"/><path class="cls-1" d="M262.44,204.76a2.37,2.37,0,0,0-2,1.34h1.68c-.07-.64.38-.73.34-1.34"/><path class="cls-1" d="M266.46,222.58c-1.42,1-4.35,2.34-4,4,1-1.43,4.86-1.85,4-4"/><path class="cls-1" d="M268.82,223.92c-2.36.66-4.78,3-5,4.7,1.5-1.74,4.25-2.24,5-4.7"/><path class="cls-1" d="M259.75,203.75c0,1-.88,1.15-1,2a11.77,11.77,0,0,0,3-1.68c-.79,0-1-.58-2-.34"/><path class="cls-1" d="M268.15,206.44c1.58,0,3.43.29,3.36-1.35-1.79-.22-2.94.2-3.36,1.35"/><path class="cls-1" d="M271.51,208.79a3,3,0,0,0-3.36,3c1-1.15,3.33-.93,3.36-3"/><path class="cls-1" d="M270.5,201.06a7.68,7.68,0,0,0-4,1.68c2.22.31,2.93-.89,4-1.68"/><path class="cls-1" d="M255,197.36c-.34-.89-.55-1.91-1.67-2,.34.88.26,2.19,1.67,2"/><path class="cls-1" d="M258.4,205.43c.32-.69.69-1.33,1-2-1.65-.8-3.19-.81-3.36,1.34.73.28,1.15.87,2.35.67"/><path class="cls-1" d="M265.46,195.68c2-.82,2,.34,3.69-.33-1.22-.32-3.21-1.39-3.69.33"/><path class="cls-1" d="M261.09,201.39c-.08-1,.76-1,.67-2-1.49-.15-2.49.18-2.35,1.68.81-.14.74.62,1.68.33"/><path class="cls-1" d="M279.92,231.65a13.43,13.43,0,0,0,1,6.38c-.06-2.4.34-5.27-1-6.38"/><path class="cls-1" d="M283.62,237.7c-.17-2.3-.05-4.88-1.68-5.71.44,2,.53,4.39,1.68,5.71"/><path class="cls-1" d="M285,232c.09,2.38.47,4.45,1.68,5.71-.41-2.06-.22-4.72-1.68-5.71"/><path class="cls-1" d="M299.41,224.25c1.06,1,1.87,3.95,3.36,3.37-1-1-1.84-4-3.36-3.37"/><path class="cls-1" d="M277.57,237c.24-1.44.77-4.37,0-5.71-.5,1.19-.61,4.53,0,5.71"/><path class="cls-1" d="M275.21,230.31c-.41,1.5-.67,4.93,0,6.39-.15-2.32,1.49-4.77,0-6.39"/><path class="cls-1" d="M322.12,108.92l3-1.23L323,110.16c-.8.91-1.63,1.81-2.44,2.66-.13.15-.26.27-.38.41a9.39,9.39,0,0,1,5.67-2.06,9.83,9.83,0,0,1,1.52.12l2.63.43-2.44,1.07a23.69,23.69,0,0,0-8.53,6.65c2.65-1.89,5.63-3.67,9.14-3.67h.49l4.75.22-4.56,1.32a19.88,19.88,0,0,0-8.25,4.53,11.15,11.15,0,0,1,5-1.45,6.91,6.91,0,0,1,1.87.25l2.79.75-2.78.77-1.78.45c-2.33.58-4.56,1.14-5.89,2.47a8.17,8.17,0,0,1,5.08,1.83,5.34,5.34,0,0,1,.66.59,7.24,7.24,0,0,1,1.82,5.13c1.49,1.23,2.74,2.69,4.66,3.49a2.54,2.54,0,0,0,1-.58,10.2,10.2,0,0,0,.62-1.5,7.21,7.21,0,0,1,1.4-2.67,2.59,2.59,0,0,1,1.05-1,1.56,1.56,0,0,1,1,.39c1.23.44,1.57,1.77,1.81,2.7a5,5,0,0,0,.42,1.25l.15,0a2.77,2.77,0,0,0,.95-.65,5.33,5.33,0,0,0-.35-1.92,7.76,7.76,0,0,1-.4-1.77,28.89,28.89,0,0,1,1-7.77,21.82,21.82,0,0,0,.77-7.39c-.67-4.74-5.53-9-11.08-9.7a14,14,0,0,0-1.68-.1c-4.87,0-8.17,2.88-10.84,6.43a13.2,13.2,0,0,1,4.37-3"/><path class="cls-1" d="M233.15,131.5a7.21,7.21,0,0,1-.39,1.78,5.32,5.32,0,0,0-.36,1.92,2.73,2.73,0,0,0,.95.65l.16,0a4.72,4.72,0,0,0,.42-1.24c.23-.93.57-2.26,1.81-2.71a1.51,1.51,0,0,1,1-.38,2.65,2.65,0,0,1,1.05,1,7,7,0,0,1,1.39,2.67,10.2,10.2,0,0,0,.62,1.5,2.57,2.57,0,0,0,1,.58c1.93-.8,3.19-2.27,4.68-3.5a7.28,7.28,0,0,1,1.81-5.13c.21-.2.43-.4.66-.58a8.26,8.26,0,0,1,5.08-1.84c-1.33-1.33-3.56-1.88-5.88-2.46l-1.79-.46-2.77-.77,2.77-.74a7,7,0,0,1,1.87-.25,11.23,11.23,0,0,1,5,1.44,19.93,19.93,0,0,0-8.24-4.52l-4.55-1.32,4.73-.22h.5c3.49,0,6.48,1.78,9.14,3.67a23.89,23.89,0,0,0-8.53-6.66l-2.45-1.06,2.64-.43a8.64,8.64,0,0,1,1.51-.13,9.37,9.37,0,0,1,5.67,2.07c-.13-.14-.24-.27-.38-.41-.8-.86-1.64-1.75-2.43-2.66l-2.14-2.47,3,1.23a13.21,13.21,0,0,1,4.36,3c-2.67-3.55-6-6.43-10.83-6.43a14.16,14.16,0,0,0-1.69.1c-5.55.69-10.42,4.95-11.07,9.7a21.33,21.33,0,0,0,.77,7.39,29.68,29.68,0,0,1,1,7.76"/><path class="cls-1" d="M256.39,202.41h-2c-.09,1.09.4,1.61,1.34,1.68-.25-1,.92-.65.68-1.68"/><path class="cls-1" d="M337.73,165.76c-3.47-8.63-4-17.95-11.1-22.85-3.07-2.11-6.73-2.65-10.41-4.71,5.74,4.83,11.56,6,14.12,13.44,2.71,7.89,5.12,17.72,4,28.58-.52,5.37-7.27,15.24,0,17.81a69.09,69.09,0,0,1,3-17.81c.49.09.57.55,1,.67-.09-1.6-1-2.33-1.35-3.69.88.13,1,1,2,1-.31-1.59-1.56-2.25-1.68-4,.74.07,1.81,1.51,2.36.68-.73-.75-2.33-2.38-2-3,.54.05,1.74,1.13,2,.33a11.37,11.37,0,0,1-2.69-3.36c2.9,1.55-.65-2.13-1-3.36.86-.36,1.18,1.44,1.68.33"/><path class="cls-1" d="M335.71,225.26a5.39,5.39,0,0,0,1.35,2.36c-.24-3.66-2.95-5.25-4.37-7.06s-2-5.33-5.72-6.05c.74,2.85,1.3,5.87,3,7.73a12.48,12.48,0,0,0-.32-3.69c3.48,1.59,2.16,6.49,3.69,8-.54-.55.24-2,.33-2S335.31,228,335,228c.59,2.81-.06-2.47.67-2.69"/><path class="cls-1" d="M303.44,224.25c-1.81-.21-2.41-3.4-4.37-2.35,1.18.84,2.89,2.94,4.37,2.35"/><path class="cls-1" d="M320.25,215.85c4,1.19,5,7.69,4,11.77,3.64-3.5,1.75-13.08-4-11.77"/><path class="cls-1" d="M248.65,198.37c-2.15,1.52-4.35,3.09-2.69,6.72,1.47-.54,2.61-1.42,4-2,0-2-.12-3.92-1.35-4.71"/><path class="cls-1" d="M273.53,205.77a5,5,0,0,0,3.36-1.68c-1-.48-3.2.26-3.36,1.68"/><path class="cls-1" d="M269.83,202.74c1.88.09,1.91-1.68,3.7-1.68,0,.4-.61.76,0,1,.44-.92,2-.69,2-2-2.64.15-4.58,1-5.71,2.69"/><path class="cls-1" d="M245,200.05c1.56-.12,1.9-1.45,3.36-1.68-8.5-9-5.25-31.21-4.71-45-3.59,6.48-2.63,17.54-6.72,23.53.55.64,1.31-1.36,2.35-1.35-.69,2.13-2.24,3.37-3,5.38,1.33.3,1.83-2,2.7-1-.5,1.74-2.66,3.61-2.35,5,.66-.24,1.58-1.95,2-1.34-.64,2.28-2.09,3.73-2.69,6,3.7,2.79,8.44,4.56,9.08,10.42"/><path class="cls-1" d="M248,206.78c.31-.84,2.58-1.41,1.34-2.69-.76.59-1.89.79-2.7,1.34a1.27,1.27,0,0,0,1.36,1.35"/><path class="cls-1" d="M260.42,193.67c-1.8.51-3-.33-4.37.33,1.27.4,4.17,2.05,4.37-.33"/><path class="cls-1" d="M249,153c-6.11,5.85-2.67,19.13-1.68,28.23.29,2.63-.48,5.23,0,7.4.75,3.43,4,4.58,6.06,6.39-1.67-3.2-5.64-8.95-2.7-13.44,1.69-.23,2.34.56,4,.33,1.31-1.49,1.71-3.9,2.36-6.05.46-.9,3.22-1.25,2.35-2.35-2,1.3-5.22,1.28-5.71,4,.65,1.15,1.79-2,2.35,0-.4,1.18-.62,2.52-2,2.69-1.63-1.55-2.66-.19-5.38-.33-3.4-7.89,0-19.42,1.35-26.9Z"/><path class="cls-1" d="M295.37,214.51c-1.78-5.19-10.39-3.5-11.42-8.74-.54-2.74,2.33-7.7,3.36-9.08,2.8-3.76,10.35-4.62,8.4-11.09,0,1.14-1,1.25-1.68,1.69-4.11-1.68-7.42.71-10.75,1-3.95.34-8.18-2.1-11.77-.33-1.17.31-2.52-2.14-2.69-.66.45,4.81,4.08,6.44,8.07,7.72-.16,4.55,4.87,5,4.71,8.74-.11,2.3-1.89,2.15-4,4-1.36,1.17-2.21,2.9-3.37,3.7-1.41.95-4.16,1.18-4,3.36,4.76-.38,13.7-1.12,20.16-.69,1.82.13,4.09,1.1,5,.35"/><path class="cls-1" d="M317.9,205.09c-.88.29-1.85-1-2.36,0,.52.54,2.27,1.93,2.36,0"/><path class="cls-1" d="M322.27,202.74c-1.84-1.49-3.31.47-5,1-.05,1.06.85,1.15,1.68,1.34.94-1,2.75-1.05,3.36-2.35"/><path class="cls-1" d="M328.32,158.71c-.87-3-2.51-10.49-6.05-7.39,0,6.68,3.76,9.82,4.36,16.12.91,9.23-5.28,16.05-2.34,22.19-2.14,1.45-5.24,3.73-4.71,6.72,1.3-3.75,7.16-7.72,9.74-2.68,1.2-3.48-1.24-6.2-1.68-10.43-.48-4.76,2.21-9.32,2.35-14.11a38.55,38.55,0,0,0-1.67-10.42"/><path class="cls-1" d="M328,199.38h-2c-.13.48-.39.56,0,1-1.71-.79-3.16.61-4.36,1.34.7.19,1.09.71,1.68,1,1.46-1.22,3.75-1.62,4.71-3.36"/><path class="cls-1" d="M301.43,139.54c-.93,3.59.17,7.25,1.34,10.43,1.5-2.18-1.71-5.36.67-6.39,2.19.7.7,4.17,1.35,5.72,2.85-.17,7,0,10.42-.33.07-.27,0-.68.33-.68-.43-4.74-6.36-1.92-8.72-1-.22-1.55.74-1.94.66-3.36-2.08-1.4-2.81-4.14-6.05-4.38"/><path class="cls-1" d="M317.57,130.47c-2.43-1.14-7.21-2-10.09-.67,3.79.91,6.78,2.62,10.42,3.7-.88-.1-1.44.12-1.35,1,2.74.74,5.78,1.18,7.74,2.7-1-.07-1.72.08-2,.66A123.41,123.41,0,0,1,334,144.59c-1-2.62-3.45-3.72-5.38-5.38,1-.08,1,.76,2,.67-2-3-6-4.1-9.41-5.71,1.09-.39,2.07,1,2.69,0-2.21-1.6-5.83-1.79-8.41-3,.59-.31,1.68-.12,2-.68"/><path class="cls-1" d="M317.57,186.61c-.9-4.93,1.22-7.25,3-11.43,2-4.62,4.8-13.39.67-17.48h-1c2.11,8.55.69,19.46-4.71,23.53-1.45-.78-2.63-1.85-4.7-2-1.84-1.52-3-5.46-5-5.71,1.49,6.12,9.89,7.13,9.74,13.79-4.42-1.07-4.36-8.42-9.06-8.08,2.19,4.07,6.69,5.86,7.38,11.43,2.61,0,1.91-3.24,3.71-4"/><path class="cls-1" d="M305.8,209.46c1.6.43,1.85,2.19,3.7,2.35.83-1.82-2.11-4.69-3.7-2.35"/><path class="cls-1" d="M303.11,121.06c-4.75,2.19-11.08-.72-15.8,1,5.95.69,11.47,2.23,15.8-1"/><path class="cls-1" d="M308.49,212.49c-1.16-.64-1.64-2-3-2.35.23,1.67,1.18,2.64,1.36,4.37a2.71,2.71,0,0,0,1.67-2"/><path class="cls-1" d="M313.2,208.12c1.24.37.95-.84,2-.67,0-1-.77-1.25-1.35-1.68-.09.69-.89.67-1.33,1-.26.91.66.67.67,1.34"/><path class="cls-1" d="M301.43,216.86c-1.56-1.59-3.9-2.37-5.72-3.7-.11,2.9,3.1,5.73,5.72,3.7"/><path class="cls-1" d="M312.53,209.13c0-2.06-1.78-2.29-2.7-1,1,.22,1.18,1.29,2.7,1"/><path class="cls-1" d="M306.82,204.42c-.25.92.66.68.66,1.35a3.39,3.39,0,0,0,2.35-1.35c-.73-1-2.07-.52-3,0"/><path class="cls-1" d="M305.46,219.22c.48-.88.46-2.23,1-3a70.41,70.41,0,0,1-5.39-6.4c-1.12.23-3.12-.42-3.7.35,1.63,4.08,6.4,5,8.07,9.08"/><path class="cls-1" d="M230.84,219.22c.32-1.71,1.61-4.21,2.69-4-.91,1.9-1.22,6.18-1,8.07.85-1.28,1.13-3.12,2.35-4-.63,2.81-.4,6.92,1,8.73.73-1.16.42-3.39,1.34-4.37.69,2.35.43,5.63,2.36,6.73.21-.92-.43-2.67.34-3,1.54,3.27,3.79,7.63,6.71,8.41-3-4.06-3.78-10.34-7.39-13.79-.66.23.09,1.88-.67,2-.15-2.21,0-4.67-1.35-5.71-.17.13-.49,1.63-.66.67,0-1.64.17-3.54-.35-4.72-.65-.09-.66.47-1,.69v-4.37c-1-.13-1.34,2.21-2,1.33a16.1,16.1,0,0,0,1.35-6c-.87-.27-1.55,1.3-2,.33,3.19-4.89-1-12.1-1.68-17.48-.65,4.51,1.36,8.34,1.34,12.1,0,4.09-3.6,7.37-2.35,11.77.2-.83,1.45-2.32,2-1.68a11.86,11.86,0,0,0-1,8.41"/><path class="cls-1" d="M274.87,123.42c3.4-1.9,8.52-.93,11.77-2.36-4.68-.24-9.18-.23-11.77,2.36"/><path class="cls-1" d="M283.62,258.2c3.1-4.07,6.85-8.67,10.75-11.76,7.48-5.93,13.76-8.3,19.49-14.45,1.17-.07,2.59.11,2.69-1-2.9-4.64-11.16-1-15.8-.33-.21-1.79-1.31-4.51-2.69-4,.76,1.18,2.2,3.4,2,4.37-2.06,1.22-1.46-2.06-2.69-2.68-.43,1.53,1.18,3.13-.34,3.7-1.06-.39-.7-2.21-1.68-2.69-.11,1.9,1.08,3.71-1,4-.69-.43-.36-1.89-1.35-2,.29,2.32.41,3.29-1.68,3.68a5.37,5.37,0,0,0-1.34-3.68c-.23,1.9.6,2.76.67,4.37-.87.13-1,1-2,1,0-2.08-.26-3.79-1.35-4.71-.15,2.18.67,3.37,1,5-11,4.57-17.67,17.83-33.28,16.47-14.69-1.28-18.72-11.87-24.54-22.86.42,7.55,4.5,14.3,8.41,19.84s9.39,10.76,15.12,13.44a83.72,83.72,0,0,1-9.42-11.09c6.27,1.85,14.91,4.48,21.85,3.69,8.47-.95,13.4-8.49,19.85-13.11,7.29-5.22,13.66-9,22.18-10.41-18.06,5.46-23.11,30.74-40.68,36.29-2.08.66-3.89-.08-5.37,0,11.29,5.69,16.22-4.61,21.18-11.09"/><path class="cls-1" d="M327.64,235.69c-14.13,5.57-31.36,7.67-37.64,19.83,4-1.59,6.68-4.58,10.42-6.72,7.24-4.16,16.22-7.34,24.54-10.09,4.65-1.54,9.71-2.25,13.1-4.37,5.23-3.25,7.5-10.49,6.72-18.15-1.12,12-7.55,15.72-17.14,19.5"/><path class="cls-1" d="M349.5,165.76c-3.42-1.62-5.22-6.65-9.08-6.73a12.82,12.82,0,0,1,3,4.05c-.53-.08-1.58-1.3-2-.35,1.36,1.79,3.14,3.14,4,5.39-.59.19-2-.41-2,.33a39,39,0,0,1,3,4.71,2.2,2.2,0,0,0-1.69-.33c.24,2.57,2.05,3.55,3,5.37-.48.19-1.73-.39-1.67.34a44.13,44.13,0,0,1,6.71,8.41c-.12-1.57-1.7-3.45-1.34-4.37,1,.48,2.12,2.58,3,2-1.39-3.54-3.65-6.21-5.72-9.08,1.52.29,3.39,2,4.37,1.69a25.37,25.37,0,0,1-5.38-6.73c1.31.05,2.69,1.78,3.7,1-2-1.93-5.28-4.36-5.71-6.73,1.58-.21,2.77,1.71,3.7,1"/><path class="cls-1" d="M349.16,215.85c.29-4.1.32-7.52.34-12.43.88.23.71,1.52,1.67,1.67-.79-7.93-3.05-16.22-7.05-19.83a28.52,28.52,0,0,1,3,6.39c-1-.31-2.22-2.24-3-1.68,2.29,2.41,5.17,6,4.7,10.08-.68-1.44-1.86-4.16-3-4,1.51,2,1.64,5.3,2.35,8.07-.91-.43-1-1.73-2-2,.55,2.23,1.56,4,1.67,6.71-.67-.34-.53-1.49-1.67-1.34,2.3,4.17.3,9.65,1,14.45,1.08-2.07.64-5.63,1.68-7.74,0,.51-.12,2.76.34,1.69"/><path class="cls-1" d="M262.1,133.5c-1.34,2.24-3.19,4-4.37,6.38,1.92-1.24,5.88-3.92,4.37-6.38"/><path class="cls-1" d="M282.27,128.46c-1,.93-.47,3.34-1.68,4-4.35.69-10,.09-12.1,3a70.58,70.58,0,0,0,14.45-2c-.65-2,1.37-4.79-.67-5"/><path class="cls-1" d="M265.79,132.83c7-.36,13.51-12.05,19.51-6.4-.28,4.6,1.31,15.64-4.71,14.46.59-1.43,2.63-1.4,2.69-3.36-2.76,3.66-7.63-.51-11.1,1-3.76,1.65-7,3.72-8.74,6.74-1.1,0-1.28-1-2.68-.68-1.32,1.83-3.47,2.8-4.71,4.71,1.39,2.22,5.71,3.2,8.4,3-.12-2-3.31-.95-3.36-3,.59-2.15,4.23-1.39,5,0-4.07-7.46,7-9.68,12.78-8.41-2.78,3.5-9.31,3.24-8.41,10.43,1.24-4.84,3.78-5.67,7.07-6.73,1.32-.43,1.68-1.59,3-2-.27,1.39.15,2.1,1,2.36-1.21,2.15-4,2.76-4.37,5.7,4.08,1.59,4-3.83,6.39-5,.43,1.54-1.37,3.53.67,3.7,1.57-.44-.08-4.11,1-5.05,3,1.27,2.39,6.13,5.37,7.39,1.36-3.51-2.11-4.73-2.69-7.39,1.46-.76,2.44,1.69,2.69,0-.66-2.58-5-1.48-4.36-5.38.63-.13.84-.72,1.67-.67,2.56,2.89,8.06,5.5,8.74,10.09.29,1.93-1.33,4.5,1,5.71.22-5.16,1.31-10.62-1.68-14.12-2.25-1.55-6.2-1.41-6.72-4.7,4.76-2,9.84,1.27,15.12,1-.28-6.33-15.07-1.43-16.13-6.06a3.26,3.26,0,0,1,3.36-4c1.68.17,2.43,3,4.37,3.71,2.28.83,5,0,7.06.33,1.25.21,1.68,1.17,3,.68-4.28-.6-6.84-4.79-9.74-5.71-4.72-1.53-9.26-1.7-14.12-1.68-5.15,0-10.9,4-14.46,6.71-.84.65-2.58,1.8-2,2.7"/><path class="cls-1" d="M258.74,132.49c-1.72,4.22-6.29,7.38-7.39,11.09,3.43-2.5,7-6.62,7.39-11.09"/><path class="cls-1" d="M271.85,225.93c-1,1.68-3.35,3.82-3,5.72.56-2.13,3.8-3.37,3-5.72"/><path class="cls-1" d="M310.17,199.38c.79-1.23,1.88-2.16,2.36-3.7-2-.13-2.41,1.42-4,1.68a1.83,1.83,0,0,0,1.68,2"/><path class="cls-1" d="M309.5,203.75a1.52,1.52,0,0,0,2.69-1c-1.21,0-2.32.16-2.69,1"/><path class="cls-1" d="M300.08,200.39c0,.44-.58.31-.67.67.6.1,1.32,1.78,2,.67-.69-.21-.09-1.69-1.35-1.34"/><path class="cls-1" d="M301.43,200.39c-.05.84.52,1,.66,1.69a2.94,2.94,0,0,0,2-.35c-.19-1.74-1.33-2.36-2.69-1.34"/><path class="cls-1" d="M299.41,214.16c-.83-1.62-1.87-4.84-4-4,1.67,1,2.31,3.07,4,4"/><path class="cls-1" d="M301.09,205.77c.77.35,1.08,1.15,2.35,1,.16-1.49-1.63-2.28-2.35-1"/><path class="cls-1" d="M314.54,201.06a3,3,0,0,0-2,1.35c1.26.14,1.52-.72,2-1.35"/><path class="cls-1" d="M273.53,229c-.17,1.86-1.33,4.48-.34,6.38-.21-2.18,2-4.89.34-6.38"/><path class="cls-1" d="M277.23,146.93c-5.35,1-8.06,8.67-3.7,12.79.42-2.68-1.7-3.43-1.68-5.38,0-3.48,4-4.58,5.38-7.41"/><path class="cls-1" d="M314.54,178.54a5.16,5.16,0,0,0-4.37-4.71c.32,2.71,2,4.09,4.37,4.71"/><path class="cls-1" d="M272.85,227.28c-.67,1.79-2.63,4.08-2,6.05.48-2,2.84-3.88,2-6.05"/><path class="cls-1" d="M320.59,166.78c-.29-.5-.5-1.07-1.34-1-2.21,1.73-5.76,2.1-6.39,5.38-.4.83-1.28-.69-1.68.34,1.27,1.64,6.62,3.76,7.73.67-1.45-.11-3.52.39-4-.67,1.46-2,5.34-1.6,5.72-4.7"/><path class="cls-1" d="M301.09,194c.81,1,1.23.33,2.69.34.27-1.56-2.44-1.14-2.69-.34"/><path class="cls-1" d="M295,207.79a4.54,4.54,0,0,0-2.35-2.7c0,1.7.48,2.88,2.35,2.7"/><path class="cls-1" d="M294.37,156c-.57-.55-.42-1.82-1-2.36-1.42-.3-1.69.55-2,1.35.48,1.2,2,1.33,2.69,2.35.19,2.12-.58,3.1.34,4.37,1.48-.31,1.41-2.16,1.68-3.69.95-1.18,3.55-.72,3-3.37-1.87-1.06-3.11,2.19-4.7,1.35"/><path class="cls-1" d="M304.12,193.33c.93,1.27,2.26.12,4,.34-.17-1.7-3.25-.94-4-.34"/><path class="cls-1" d="M298.4,207.11c-.89-.69-2.3-2.61-4-1.34.41.71,1.27,1,1.34,2,1.15,0,2.34.1,2.69-.68"/><path class="cls-1" d="M289,205.09c1,1,1.88,2.17,3.7,2.36a6.69,6.69,0,0,0-1.35-2.69c-.69.2-2.2-.42-2.35.33"/><path class="cls-1" d="M307.14,188a1.49,1.49,0,0,0,1.35,2.35,2.1,2.1,0,0,0,0-2.35Z"/><path class="cls-1" d="M301.76,206.78c-.72-.85-2.85-2.06-4.37-1,.91,1,2.84,2.57,4.37,1"/><path class="cls-1" d="M306.13,213.83c-.84-1.17-1-3.05-1.68-4.37h-2.69c1.1,1.61,2.67,4.5,4.37,4.37"/><path class="cls-1" d="M303.44,205.09c0,.84.53,1,.68,1.69a1.46,1.46,0,0,0,1.34-.68c-.87-.13-1-1-2-1"/><path class="cls-1" d="M297.39,195.68a12.1,12.1,0,0,0,3.35-1c-1.24-.94-2.64.33-3.35,1"/><path class="cls-1" d="M305.8,198.7c.08,1.38,1.39,1.52,2.69,1.69.6-1-1.31-2.62-2.69-1.69"/><path class="cls-1" d="M305.8,204.42c0,.55-.94.19-1,.67.68.33,1.33.69,2,1-.13-.78-.36-1.45-1-1.68"/><path class="cls-1" d="M303.78,199.38c-.08,1.21,1,1.23,1,2.35.82.15.72-.61,1.69-.34-.13-1.43-1.27-1.87-2.7-2"/><path class="cls-1" d="M245.84,264.83l-9.49-14A80.94,80.94,0,0,1,208.81,190c0-22.33,8-41.52,22.65-56.2-1.31-1.15-.65-4.71-1.91-6.19-15.67,15.71-26.44,38.45-26.44,62.39a86.78,86.78,0,0,0,42.73,74.79"/><path class="cls-1" d="M317.49,259.78c4.61-3.22,9-6.28,11.93-10.45l4.52-6.37-5.9,5.13a60.92,60.92,0,0,1-9.73,6.4c-8.05,4.62-16.39,9.4-17.47,20.1l-.66,6.38,2.45-5.94c2.81-6.81,8.93-11.11,14.86-15.25"/><path class="cls-1" d="M278,270.28h0c-1.73,1.72-5.15,3-8.88,4a86.7,86.7,0,0,0,30.63,2l.18-1.81a21.5,21.5,0,0,1,.82-4.05,80.94,80.94,0,0,1-22.75-.15"/><path class="cls-1" d="M371.05,190a81.24,81.24,0,0,1-63.59,79.19,21.66,21.66,0,0,0-4,6.15l-.17.45A86.8,86.8,0,0,0,344,122.17a66.28,66.28,0,0,1-1,6.65,80.91,80.91,0,0,1,28,61.22"/><path class="cls-1" d="M254.7,156c.51.07.31.81.34,1.34,1.3-.05,1.56-1.14,3-1a9.41,9.41,0,0,1,1.79,1.83,1.36,1.36,0,0,1,0-.82c.31-1,1.79-1.42,3.53-1.17a2,2,0,0,0,2,2.77,2.61,2.61,0,0,0,.45-2c1.46.79,2.33,1.94,2,2.9-.38,1.21-2.49,1.64-4.7.94a6.28,6.28,0,0,1-1.83-.92,5.35,5.35,0,0,0,4.47,1.82c1.88,1.05,1,4.84,2.36,6.39,3.28-4.49,1-12.43-3.7-13.78-3.56-.39-7,1-10.08,0-2-5,3.67-7,2-10.42-.28,3-3.42,3.15-4,5.72-.75,3,1.28,6.55-1,8.4,1.53-.27,1.26-2.33,3.35-2"/><path class="cls-1" d="M313.86,154.34c-9.34-2.46-16.9,3.21-14.79,12.1,1.16-.78,1.4-1.3,2.36,0,1-1.95,1.65-4.18,3.36-5.37a4.91,4.91,0,0,0,4.17-1,7.72,7.72,0,0,1-1.35.52c-2.26.58-4.34,0-4.66-1.19a2.18,2.18,0,0,1,1.05-2.08,2,2,0,0,0,2.11,1.65,3,3,0,0,0,.24-2.82l.1,0c2.24-.58,4.34,0,4.65,1.18,0,.12,0,.25,0,.37a5.15,5.15,0,0,1,2.8-2c.18.5.5.84.68,1.35-.33,4-6,4.55-6.72,7.05,1.34-2.8,4.67-1.1,7.39-2,1.25-.41,3.55-5.58,3.7-6.72.22-1.69-.94-2.83-.68-5,.52-1.5,2.59-1.44,3-3-1.33-1.95-2.71-5.54-5.37-5-1.91,2.81,2.57,5.82.66,9.74-1.7,0-1.51,1.85-2.69,2.36"/><path class="cls-1" d="M255.34,130.67c-2.82.6,2.47,0,2.69.67a5.49,5.49,0,0,0-2.36,1.35c3.65-.23,5.25-2.94,7.06-4.37s5.32-2,6-5.71c-2.85.72-5.87,1.28-7.73,3a12.92,12.92,0,0,0,3.7-.34c-1.6,3.48-6.5,2.17-8.07,3.7.56-.55,2,.25,2,.34s-3.41,1.62-3.36,1.34"/></svg>